<svg id="css_logo" xmlns="http://www.w3.org/2000/svg" width="63.501" height="89.632" viewBox="0 0 63.501 89.632">
  <path id="path2999" d="M629.075,221.388H638.7v4.026h-5.6v4.026h5.6v4.026h-9.628Z" transform="translate(-614.13 -221.388)" fill="#fff"/>
  <path id="path3001" d="M640.978,221.388h9.628v3.5H645v.7h5.6v8.053h-9.628v-3.676h5.6v-.7h-5.6Z" transform="translate(-614.479 -221.388)" fill="#fff"/>
  <path id="path3003" d="M652.881,221.388h9.628v3.5h-5.6v.7h5.6v8.053h-9.628v-3.676h5.6v-.7h-5.6Z" transform="translate(-614.828 -221.388)" fill="#fff"/>
  <path id="Path_12" data-name="Path 12" d="M613.679,239.535l5.779,64.818,25.934,7.2,26-7.209,5.785-64.807Zm50.2,29.34-.193,2.135-1.868,20.929-.119,1.343-16.27,4.509v0l-.037.01-16.284-4.52L627.995,280.8h7.981l.566,6.339,8.854,2.391.007,0h0l8.866-2.394.923-10.311H627.639l-.713-7.949H655.88l.723-8.141H626.218l-.723-7.95h39.821Z" transform="translate(-613.679 -221.92)" fill="#fff"/>
</svg>
