<svg xmlns="http://www.w3.org/2000/svg" width="24.402" height="16.472" viewBox="0 0 24.402 16.472"><path d="M.072,19.081V5.527q0-.024.071-.447L8.12,11.9.166,19.552a1.994,1.994,0,0,1-.094-.471ZM1.131,4.139a1.014,1.014,0,0,1,.4-.071H23.015a1.333,1.333,0,0,1,.424.071l-8,6.848-1.059.847-2.094,1.718-2.094-1.718-1.059-.847Zm.024,16.331,8.024-7.695,3.106,2.518,3.106-2.518,8.024,7.695a1.13,1.13,0,0,1-.4.071H1.531a1.066,1.066,0,0,1-.377-.071ZM16.45,11.9,24.4,5.08a1.4,1.4,0,0,1,.071.447V19.081a1.8,1.8,0,0,1-.071.471Z" transform="translate(-0.072 -4.068)" fill="#fff"/></svg>