<svg id="git_logo" xmlns="http://www.w3.org/2000/svg" width="80.162" height="80.16" viewBox="0 0 80.162 80.16">
  <path id="Path_25" data-name="Path 25" d="M81.2,39.067l-35-35a5.163,5.163,0,0,0-7.3,0l-7.267,7.269,9.218,9.218a6.131,6.131,0,0,1,7.763,7.817l8.886,8.885a6.137,6.137,0,1,1-3.679,3.464l-8.288-8.287V54.243a6.133,6.133,0,1,1-5.05-.179V32.054A6.146,6.146,0,0,1,37.154,24l-9.088-9.089-24,24a5.165,5.165,0,0,0,0,7.3l35,35a5.163,5.163,0,0,0,7.3,0L81.2,46.37A5.165,5.165,0,0,0,81.2,39.067Z" transform="translate(-2.555 -2.558)" fill="#fff"/>
</svg>
