<svg xmlns="http://www.w3.org/2000/svg" width="20.226" height="19.721" viewBox="0 0 20.226 19.721"><path d="M6.765,16.442c0,.082-.094.147-.212.147-.135.012-.228-.053-.228-.147s.094-.147.212-.147S6.765,16.348,6.765,16.442ZM5.5,16.258c-.029.082.053.175.175.2a.191.191,0,0,0,.253-.082c.024-.082-.053-.175-.175-.212A.209.209,0,0,0,5.5,16.258Zm1.8-.069c-.118.029-.2.106-.188.2s.118.135.241.106.2-.106.188-.188S7.418,16.177,7.3,16.189ZM9.983.563A9.778,9.778,0,0,0,0,10.512a10.224,10.224,0,0,0,6.912,9.754c.522.094.705-.228.705-.493s-.012-1.647-.012-2.5c0,0-2.855.612-3.454-1.215,0,0-.465-1.187-1.134-1.493,0,0-.934-.64.065-.628a2.153,2.153,0,0,1,1.574,1.052,2.156,2.156,0,0,0,2.973.852,2.266,2.266,0,0,1,.652-1.374C6,14.211,3.7,13.881,3.7,9.958a3.091,3.091,0,0,1,.962-2.4,3.853,3.853,0,0,1,.106-2.769c.852-.265,2.814,1.1,2.814,1.1a9.634,9.634,0,0,1,5.122,0s1.961-1.37,2.814-1.1a3.851,3.851,0,0,1,.106,2.769,3.17,3.17,0,0,1,1.052,2.4c0,3.935-2.4,4.249-4.681,4.506a2.412,2.412,0,0,1,.693,1.892c0,1.374-.012,3.075-.012,3.409,0,.265.188.587.705.493a10.129,10.129,0,0,0,6.843-9.746A10,10,0,0,0,9.983.563ZM3.964,14.627c-.053.041-.041.135.029.212s.159.094.212.041.041-.135-.029-.212S4.017,14.574,3.964,14.627Zm-.44-.33c-.029.053.012.118.094.159a.121.121,0,0,0,.175-.029c.029-.053-.012-.118-.094-.159C3.617,14.244,3.552,14.256,3.523,14.3Zm1.321,1.452c-.065.053-.041.175.053.253.094.094.212.106.265.041s.029-.175-.053-.253C5.02,15.7,4.9,15.683,4.845,15.748Zm-.465-.6c-.065.041-.065.147,0,.241s.175.135.228.094a.186.186,0,0,0,0-.253C4.551,15.137,4.445,15.1,4.38,15.149Z" transform="translate(0 -0.563)"/></svg>