<svg id="html5_logo" xmlns="http://www.w3.org/2000/svg" width="61.452" height="86.724" viewBox="0 0 61.452 86.724">
  <path id="Path_1" data-name="Path 1" d="M108.4,0h3.9V3.862h3.591V0h3.9V11.687h-3.9v-3.9H112.33v3.9H108.4M124.932,3.9h-3.438V0h10.79V3.9h-3.455v7.792h-3.9M133.994,0h4.082l2.507,4.116L143.09,0h4.082V11.687h-3.9V5.895l-2.727,4.2-2.727-4.2v5.793h-3.828M149.1,0H153V7.825h5.522v3.862H149.1" transform="translate(-102.675 0)" fill="#fff"/>
  <path id="Path_2" data-name="Path 2" d="M80.19,163.339,74.6,100.6h61.452l-5.59,62.705-25.187,6.979" transform="translate(-74.6 -83.56)" fill="#fff"/>
  <path id="Path_3" data-name="Path 3" d="M256,190.2V131h25.12l-4.794,53.525" transform="translate(-225.274 -108.811)" fill="#f6f6f6"/>
  <path id="Path_4" data-name="Path 4" d="M142,176.3h19.31v7.69H150.435l.711,7.876H161.31v7.673H144.1m.339,3.862h7.724l.542,6.149,8.6,2.3v8.029l-15.786-4.4" transform="translate(-130.584 -146.438)"/>
  <path id="Path_5" data-name="Path 5" d="M275.076,176.3H255.8v7.69h18.564m-.694,7.876H255.8v7.69h9.485l-.9,9.994-8.588,2.3v7.995l15.753-4.37" transform="translate(-225.108 -146.438)"/>
</svg>
