<svg xmlns="http://www.w3.org/2000/svg" width="19.37" height="15.732" viewBox="0 0 19.37 15.732">
  <path id="Icon_awesome-twitter" data-name="Icon awesome-twitter" d="M17.379,7.3c.012.172.012.344.012.516a11.218,11.218,0,0,1-11.3,11.3A11.219,11.219,0,0,1,0,17.331a8.212,8.212,0,0,0,.959.049,7.951,7.951,0,0,0,4.929-1.7,3.977,3.977,0,0,1-3.712-2.753,5.006,5.006,0,0,0,.75.061,4.2,4.2,0,0,0,1.045-.135,3.97,3.97,0,0,1-3.183-3.9V8.912a4,4,0,0,0,1.794.5,3.976,3.976,0,0,1-1.229-5.31A11.284,11.284,0,0,0,9.538,8.26a4.482,4.482,0,0,1-.1-.909A3.974,3.974,0,0,1,16.31,4.634a7.816,7.816,0,0,0,2.52-.959,3.959,3.959,0,0,1-1.745,2.188,7.959,7.959,0,0,0,2.286-.615A8.534,8.534,0,0,1,17.379,7.3Z" transform="translate(0 -3.381)" fill="#fff"/>
</svg>
