<svg xmlns="http://www.w3.org/2000/svg" width="18.094" height="18.094" viewBox="0 0 18.094 18.094">
  <path id="Icon_awesome-linkedin-in" data-name="Icon awesome-linkedin-in" d="M4.05,18.094H.3V6.014H4.05ZM2.173,4.366A2.183,2.183,0,1,1,4.345,2.173,2.191,2.191,0,0,1,2.173,4.366ZM18.09,18.094H14.347V12.214c0-1.4-.028-3.2-1.95-3.2-1.95,0-2.249,1.523-2.249,3.1v5.982H6.4V6.014H10V7.662h.053A3.942,3.942,0,0,1,13.6,5.711c3.8,0,4.494,2.5,4.494,5.747v6.636Z" transform="translate(0 -0.001)" fill="#fff"/>
</svg>
