<svg xmlns="http://www.w3.org/2000/svg" width="68" height="68" viewBox="0 0 68 68">
  <g id="js_logo" transform="translate(0 -0.303)">
    <rect id="Rectangle_16" data-name="Rectangle 16" width="68" height="68" transform="translate(0 0.303)" fill="#fff"/>
    <path id="Path_9" data-name="Path 9" d="M170.932,312.194c1.179,1.823,2.144,3.324,4.289,3.324,2.037,0,3.431-.858,3.431-3.967V290h6.326v21.658c0,6.54-3.86,9.542-9.435,9.542a10.014,10.014,0,0,1-9.542-5.79" transform="translate(-147.727 -258.547)"/>
    <path id="Path_10" data-name="Path 10" d="M380.146,308.98c1.394,2.252,3.109,3.86,6.219,3.86,2.68,0,4.289-1.287,4.289-3.109,0-2.144-1.715-2.895-4.61-4.181l-1.608-.643c-4.61-1.93-7.612-4.4-7.612-9.542,0-4.718,3.645-8.363,9.328-8.363,4.074,0,6.969,1.394,9.006,5.039l-4.932,3.217c-1.072-1.93-2.252-2.68-4.074-2.68a2.744,2.744,0,0,0-3,2.68c0,1.93,1.179,2.68,3.86,3.86l1.608.643c5.361,2.359,8.47,4.718,8.47,9.971,0,5.683-4.5,8.792-10.507,8.792-5.9,0-9.757-2.788-11.579-6.433" transform="translate(-334.319 -255.869)"/>
  </g>
</svg>
