<svg xmlns="http://www.w3.org/2000/svg" width="27.001" height="23.626" viewBox="0 0 27.001 23.626">
  <path id="left-quote" d="M24.47,14.063H20.251V10.688a3.378,3.378,0,0,1,3.375-3.375h.422a1.263,1.263,0,0,0,1.266-1.266V3.516A1.263,1.263,0,0,0,24.048,2.25h-.422a8.435,8.435,0,0,0-8.438,8.438V23.345a2.532,2.532,0,0,0,2.531,2.531h6.75A2.532,2.532,0,0,0,27,23.345v-6.75A2.532,2.532,0,0,0,24.47,14.063Zm-15.188,0H5.063V10.688A3.378,3.378,0,0,1,8.438,7.313H8.86a1.263,1.263,0,0,0,1.266-1.266V3.516A1.263,1.263,0,0,0,8.86,2.25H8.438A8.435,8.435,0,0,0,0,10.688V23.345a2.532,2.532,0,0,0,2.531,2.531h6.75a2.532,2.532,0,0,0,2.531-2.531v-6.75A2.532,2.532,0,0,0,9.282,14.063Z" transform="translate(0 -2.25)" fill="#f3f3f3"/>
</svg>
