<svg id="react_logo" xmlns="http://www.w3.org/2000/svg" width="83.845" height="74.668" viewBox="0 0 83.845 74.668">
  <path id="Path_26" data-name="Path 26" d="M259.545,115.342c0-5.554-6.956-10.818-17.62-14.082,2.461-10.869,1.367-19.517-3.452-22.286a7.493,7.493,0,0,0-3.828-.957v3.811a3.958,3.958,0,0,1,1.948.444c2.324,1.333,3.333,6.409,2.546,12.937-.188,1.606-.5,3.3-.872,5.025a82.822,82.822,0,0,0-10.852-1.863,83.365,83.365,0,0,0-7.11-8.545c5.571-5.178,10.8-8.015,14.356-8.015V78h0c-4.7,0-10.852,3.35-17.073,9.16-6.221-5.777-12.373-9.092-17.073-9.092V81.88c3.538,0,8.784,2.82,14.356,7.964a80.716,80.716,0,0,0-7.058,8.528,79.808,79.808,0,0,0-10.869,1.88c-.393-1.709-.684-3.367-.889-4.956-.8-6.528.188-11.6,2.5-12.954a3.8,3.8,0,0,1,1.965-.444V78.085h0a7.62,7.62,0,0,0-3.862.957c-4.8,2.769-5.879,11.4-3.4,22.235-10.63,3.281-17.552,8.528-17.552,14.065,0,5.554,6.956,10.818,17.62,14.082-2.461,10.869-1.367,19.517,3.452,22.286a7.513,7.513,0,0,0,3.845.957c4.7,0,10.852-3.35,17.073-9.16,6.221,5.777,12.373,9.092,17.073,9.092a7.62,7.62,0,0,0,3.862-.957c4.8-2.769,5.879-11.4,3.4-22.234C252.624,126.143,259.545,120.88,259.545,115.342Zm-22.252-11.4c-.632,2.2-1.419,4.478-2.307,6.751-.7-1.367-1.436-2.734-2.239-4.1-.786-1.367-1.624-2.7-2.461-4C232.713,102.952,235.055,103.4,237.294,103.943Zm-7.827,18.2c-1.333,2.307-2.7,4.495-4.119,6.529-2.546.222-5.127.342-7.725.342-2.581,0-5.161-.12-7.691-.325q-2.128-3.051-4.136-6.494-1.948-3.358-3.555-6.8c1.06-2.29,2.256-4.58,3.538-6.819,1.333-2.307,2.7-4.495,4.119-6.529,2.546-.222,5.127-.342,7.725-.342,2.581,0,5.161.12,7.691.325q2.128,3.051,4.136,6.494,1.948,3.358,3.555,6.8C231.927,117.615,230.748,119.905,229.466,122.144Zm5.52-2.222c.923,2.29,1.709,4.58,2.358,6.8-2.239.547-4.6,1.008-7.041,1.367.837-1.316,1.675-2.666,2.461-4.05C233.551,122.674,234.286,121.29,234.986,119.923Zm-17.33,18.235a70.463,70.463,0,0,1-4.751-5.469c1.538.068,3.11.12,4.7.12,1.606,0,3.2-.034,4.751-.12A66.7,66.7,0,0,1,217.657,138.158Zm-12.715-10.066c-2.427-.359-4.768-.8-7.007-1.35.632-2.2,1.418-4.478,2.307-6.751.7,1.367,1.436,2.734,2.239,4.1S204.1,126.793,204.942,128.092Zm12.63-35.565A70.461,70.461,0,0,1,222.322,98c-1.538-.068-3.11-.12-4.7-.12-1.606,0-3.2.034-4.751.12A66.709,66.709,0,0,1,217.571,92.527Zm-12.647,10.066c-.837,1.316-1.675,2.666-2.461,4.05-.786,1.367-1.521,2.734-2.222,4.1-.923-2.29-1.709-4.58-2.358-6.8C200.122,103.413,202.481,102.952,204.925,102.593Zm-15.467,21.4c-6.05-2.581-9.964-5.965-9.964-8.648s3.914-6.084,9.964-8.648c1.47-.632,3.076-1.2,4.734-1.726a82.084,82.084,0,0,0,3.845,10.408,80.924,80.924,0,0,0-3.794,10.357C192.551,125.2,190.945,124.622,189.458,123.99Zm9.195,24.422c-2.324-1.333-3.333-6.409-2.546-12.937.188-1.607.5-3.3.872-5.025a82.825,82.825,0,0,0,10.852,1.863,83.368,83.368,0,0,0,7.11,8.545c-5.571,5.178-10.8,8.015-14.356,8.015A4.079,4.079,0,0,1,198.652,148.412Zm40.538-13.023c.8,6.529-.188,11.6-2.5,12.954a3.8,3.8,0,0,1-1.965.444c-3.538,0-8.784-2.82-14.356-7.964a80.717,80.717,0,0,0,7.058-8.528,79.8,79.8,0,0,0,10.869-1.88A47.85,47.85,0,0,1,239.191,135.389Zm6.58-11.4c-1.47.632-3.076,1.2-4.734,1.726a82.081,82.081,0,0,0-3.845-10.408,80.926,80.926,0,0,0,3.794-10.357c1.692.53,3.3,1.111,4.8,1.743,6.05,2.581,9.964,5.965,9.964,8.648C255.734,118.026,251.82,121.427,245.77,123.99Z" transform="translate(-175.7 -78)" fill="#fff"/>
  <path id="Path_27" data-name="Path 27" d="M320.8,78.4Z" transform="translate(-296.002 -78.332)" fill="#fff"/>
  <circle id="Ellipse_7" data-name="Ellipse 7" cx="7.81" cy="7.81" r="7.81" transform="translate(34.095 29.532)" fill="#fff"/>
  <path id="Path_28" data-name="Path 28" d="M520.5,78.1Z" transform="translate(-461.573 -78.083)" fill="#fff"/>
</svg>
