<svg xmlns="http://www.w3.org/2000/svg" width="27.001" height="23.626" viewBox="0 0 27.001 23.626">
  <path id="right-quote" d="M24.47,2.25h-6.75a2.532,2.532,0,0,0-2.531,2.531v6.75a2.532,2.532,0,0,0,2.531,2.531h4.219v3.375a3.378,3.378,0,0,1-3.375,3.375h-.422a1.263,1.263,0,0,0-1.266,1.266V24.61a1.263,1.263,0,0,0,1.266,1.266h.422A8.435,8.435,0,0,0,27,17.438V4.781A2.532,2.532,0,0,0,24.47,2.25Zm-15.188,0H2.531A2.532,2.532,0,0,0,0,4.781v6.75a2.532,2.532,0,0,0,2.531,2.531H6.75v3.375a3.378,3.378,0,0,1-3.375,3.375H2.953a1.263,1.263,0,0,0-1.266,1.266V24.61a1.263,1.263,0,0,0,1.266,1.266h.422a8.435,8.435,0,0,0,8.438-8.438V4.781A2.532,2.532,0,0,0,9.282,2.25Z" transform="translate(0 -2.25)" fill="#f3f3f3"/>
</svg>
