<svg xmlns="http://www.w3.org/2000/svg" width="21.375" height="17.361" viewBox="0 0 21.375 17.361"><path d="M19.178,7.707c.014.19.014.38.014.57A12.379,12.379,0,0,1,6.727,20.741,12.38,12.38,0,0,1,0,18.775a9.062,9.062,0,0,0,1.058.054A8.774,8.774,0,0,0,6.5,16.957a4.389,4.389,0,0,1-4.1-3.038,5.524,5.524,0,0,0,.827.068,4.633,4.633,0,0,0,1.153-.149,4.381,4.381,0,0,1-3.513-4.3V9.484a4.412,4.412,0,0,0,1.98.556A4.387,4.387,0,0,1,1.492,4.181a12.452,12.452,0,0,0,9.033,4.584,4.945,4.945,0,0,1-.109-1,4.385,4.385,0,0,1,7.582-3,8.625,8.625,0,0,0,2.78-1.058A4.369,4.369,0,0,1,18.853,6.12a8.782,8.782,0,0,0,2.523-.678A9.417,9.417,0,0,1,19.178,7.707Z" transform="translate(0 -3.381)" fill="#fff"/></svg>