<svg xmlns="http://www.w3.org/2000/svg" width="508" height="387" viewBox="0 0 508 387">
  <g id="Group_45" data-name="Group 45" transform="translate(-1293 -294)">
    <g id="Rectangle_1" data-name="Rectangle 1" transform="translate(1294 294)" fill="#fff" stroke="#707070" stroke-width="1">
      <rect width="506" height="387" rx="9" stroke="none"/>
      <rect x="0.5" y="0.5" width="505" height="386" rx="8.5" fill="none"/>
    </g>
    <g id="Rectangle_2" data-name="Rectangle 2" transform="translate(1293 294)" fill="#c1c1c1" stroke="#707070" stroke-width="1">
      <rect width="508" height="21" rx="10.5" stroke="none"/>
      <rect x="0.5" y="0.5" width="507" height="20" rx="10" fill="none"/>
    </g>
    <g id="Group_1" data-name="Group 1" transform="translate(1 2)">
      <g id="Rectangle_3" data-name="Rectangle 3" transform="translate(1781 297)" fill="#fff" stroke="#707070" stroke-width="1">
        <rect width="10" height="11" stroke="none"/>
        <rect x="0.5" y="0.5" width="9" height="10" fill="none"/>
      </g>
      <text id="x" transform="translate(1786 306)" stroke="#707070" stroke-width="1" font-size="13" font-family="Roboto-Bold, Roboto" font-weight="700"><tspan x="-3.307" y="0">x</tspan></text>
    </g>
    <g id="Rectangle_4" data-name="Rectangle 4" transform="translate(1587 400)" fill="#0f0f0f" stroke="#707070" stroke-width="1">
      <rect width="191" height="194" rx="12" stroke="none"/>
      <rect x="0.5" y="0.5" width="190" height="193" rx="11.5" fill="none"/>
    </g>
    <g id="Rectangle_5" data-name="Rectangle 5" transform="translate(1310 353)" stroke="#707070" stroke-width="1">
      <rect width="243" height="20" rx="9" stroke="none"/>
      <rect x="0.5" y="0.5" width="242" height="19" rx="8.5" fill="none"/>
    </g>
    <g id="Rectangle_6" data-name="Rectangle 6" transform="translate(1310 382)" fill="#545454" stroke="#707070" stroke-width="1">
      <rect width="161" height="15" rx="7.5" stroke="none"/>
      <rect x="0.5" y="0.5" width="160" height="14" rx="7" fill="none"/>
    </g>
    <g id="Rectangle_7" data-name="Rectangle 7" transform="translate(1310 446)" fill="#545454" stroke="#707070" stroke-width="1">
      <rect width="231" height="10" rx="5" stroke="none"/>
      <rect x="0.5" y="0.5" width="230" height="9" rx="4.5" fill="none"/>
    </g>
    <g id="Rectangle_8" data-name="Rectangle 8" transform="translate(1310 467)" fill="#545454" stroke="#707070" stroke-width="1">
      <rect width="231" height="10" rx="5" stroke="none"/>
      <rect x="0.5" y="0.5" width="230" height="9" rx="4.5" fill="none"/>
    </g>
    <g id="Rectangle_9" data-name="Rectangle 9" transform="translate(1310 488)" fill="#545454" stroke="#707070" stroke-width="1">
      <rect width="231" height="10" rx="5" stroke="none"/>
      <rect x="0.5" y="0.5" width="230" height="9" rx="4.5" fill="none"/>
    </g>
    <g id="Rectangle_10" data-name="Rectangle 10" transform="translate(1310 509)" fill="#545454" stroke="#707070" stroke-width="1">
      <rect width="196" height="10" rx="5" stroke="none"/>
      <rect x="0.5" y="0.5" width="195" height="9" rx="4.5" fill="none"/>
    </g>
    <g id="Rectangle_11" data-name="Rectangle 11" transform="translate(1310 530)" fill="#545454" stroke="#707070" stroke-width="1">
      <rect width="207" height="10" rx="5" stroke="none"/>
      <rect x="0.5" y="0.5" width="206" height="9" rx="4.5" fill="none"/>
    </g>
    <g id="Rectangle_12" data-name="Rectangle 12" transform="translate(1310 551)" fill="#545454" stroke="#707070" stroke-width="1">
      <rect width="113" height="10" rx="5" stroke="none"/>
      <rect x="0.5" y="0.5" width="112" height="9" rx="4.5" fill="none"/>
    </g>
    <g id="Rectangle_13" data-name="Rectangle 13" transform="translate(1310 572)" fill="#545454" stroke="#707070" stroke-width="1">
      <rect width="212" height="10" rx="5" stroke="none"/>
      <rect x="0.5" y="0.5" width="211" height="9" rx="4.5" fill="none"/>
    </g>
    <g id="Rectangle_14" data-name="Rectangle 14" transform="translate(1312 608)" stroke="#707070" stroke-width="1">
      <rect width="62" height="26" stroke="none"/>
      <rect x="0.5" y="0.5" width="61" height="25" fill="none"/>
    </g>
  </g>
</svg>
